HIERARCHY
ROOT root
{
	OFFSET	0	13.1	24.9
	CHANNELS 6  Xposition Yposition Zposition Xrotation Yrotation Zrotation
	JOINT spine_1
	{
		OFFSET	0	9.99999	0
		CHANNELS 3  Xrotation Yrotation Zrotation
		JOINT spine_2
		{
			OFFSET	0	112	-10
			CHANNELS 3  Xrotation Yrotation Zrotation
			JOINT spine_3
			{
				OFFSET	0	206.5	19.3
				CHANNELS 3  Xrotation Yrotation Zrotation
				JOINT spine_4
				{
					OFFSET	0	110.4	14.6
					CHANNELS 3  Xrotation Yrotation Zrotation
					JOINT neck_1
					{
						OFFSET	0	71.8	-50.3
						CHANNELS 3  Xrotation Yrotation Zrotation
						JOINT neck_2
						{
							OFFSET	0	86.2	-25.8
							CHANNELS 3  Xrotation Yrotation Zrotation
							JOINT head_ee
							{
								OFFSET	0	179.8	-8.7
								CHANNELS 3  Xrotation Yrotation Zrotation
								End Site
								{
									OFFSET	1	0	0
								}
							}
						}
					}
					JOINT left_clavicle
					{
						OFFSET	-43.2	22.4	-70.8
						CHANNELS 3  Xrotation Yrotation Zrotation
						JOINT left_shoulder
						{
							OFFSET	-93.9	-5.79999	48.7
							CHANNELS 3  Xrotation Yrotation Zrotation
							JOINT left_elbow
							{
								OFFSET	-291.4	-30.8	15.2
								CHANNELS 3  Xrotation Yrotation Zrotation
								JOINT left_lowarm_twist
								{
									OFFSET	-110.7	-3.89999	13.6
									CHANNELS 3  Xrotation Yrotation Zrotation
									JOINT left_hand
									{
										OFFSET	-110.7	-3.89999	13.6
										CHANNELS 3  Xrotation Yrotation Zrotation
										JOINT left_ee
										{
											OFFSET	-80.8	-5.10001	12.1
											CHANNELS 3  Xrotation Yrotation Zrotation
											End Site
											{
												OFFSET	1	0	0
											}
										}
									}
								}
							}
						}
					}
					JOINT right_clavicle
					{
						OFFSET	43.2	22.4	-70.8
						CHANNELS 3  Xrotation Yrotation Zrotation
						JOINT right_shoulder
						{
							OFFSET	93.9	-5.79999	48.7
							CHANNELS 3  Xrotation Yrotation Zrotation
							JOINT right_elbow
							{
								OFFSET	291.4	-30.8	15.2
								CHANNELS 3  Xrotation Yrotation Zrotation
								JOINT right_lowarm_twist
								{
									OFFSET	110.7	-3.89999	13.6
									CHANNELS 3  Xrotation Yrotation Zrotation
									JOINT right_hand
									{
										OFFSET	110.7	-3.89999	13.6
										CHANNELS 3  Xrotation Yrotation Zrotation
										JOINT right_ee
										{
											OFFSET	80.8	-5.10001	12.1
											CHANNELS 3  Xrotation Yrotation Zrotation
											End Site
											{
												OFFSET	1	0	0
											}
										}
									}
								}
							}
						}
					}
				}
			}
		}
	}
	JOINT left_hip
	{
		OFFSET	-82.8	-127.5	0.300001
		CHANNELS 3  Xrotation Yrotation Zrotation
		JOINT left_knee
		{
			OFFSET	-28.2	-396.7	2.2
			CHANNELS 3  Xrotation Yrotation Zrotation
			JOINT left_ankle
			{
				OFFSET	-11.7	-411.3	35.4
				CHANNELS 3  Xrotation Yrotation Zrotation
				JOINT left_toes
				{
					OFFSET	0	-60	-88.6
					CHANNELS 3  Xrotation Yrotation Zrotation
					JOINT left_foot_ee
					{
						OFFSET	-22.5	-16.5	-42.2
						CHANNELS 3  Xrotation Yrotation Zrotation
						End Site
						{
							OFFSET	1	0	0
						}
					}
				}
			}
		}
	}
	JOINT right_hip
	{
		OFFSET	82.8	-127.5	0.300001
		CHANNELS 3  Xrotation Yrotation Zrotation
		JOINT right_knee
		{
			OFFSET	28.2	-396.7	2.2
			CHANNELS 3  Xrotation Yrotation Zrotation
			JOINT right_ankle
			{
				OFFSET	11.7	-411.3	35.4
				CHANNELS 3  Xrotation Yrotation Zrotation
				JOINT right_toes
				{
					OFFSET	0	-60	-88.6
					CHANNELS 3  Xrotation Yrotation Zrotation
					JOINT right_foot_ee
					{
						OFFSET	22.5	-16.5	-42.2
						CHANNELS 3  Xrotation Yrotation Zrotation
						End Site
						{
							OFFSET	1	0	0
						}
					}
				}
			}
		}
	}
}
MOTION
Frames: 8
Frame Time: 0.02
3155.01 719.533 -507.091 -168.913 -52.4625 -176.199 4.01301 0.830271 3.00397 4.0178 0.637529 3.05066 4.04896 0.202727 3.10991 4.03614 0.691106 3.03898 -8.75352 9.20874 -1.3895 -8.80549 18.213 0.765847 -0.0 0.0 -0.0 -1.51256 22.638 0.518332 -60.0462 -61.9148 38.4346 0.568012 -15.7155 0.078392 31.3865 0.0214251 -3.95963 -0.340131 -14.1312 -8.31886 -0.0 0.0 -0.0 11.9542 28.0048 -23.0365 -63.0881 68.044 -18.9019 1.4038 34.8129 -0.440118 -16.2958 0.849956 -1.89543 1.59475 -22.1653 -18.496 0.0 0.0 0.0 46.0998 6.80774 -4.9807 -52.7831 -1.47309 7.68403 0.650208 -29.0349 -0.119624 -6.68034 0.0 0.0 -0.0 0.0 -0.0 20.9424 16.0276 -6.19424 -21.1608 -0.280036 -3.21678 35.9124 -15.5389 4.5559 -33.1708 0.0 0.0 0.0 0.0 0.0 
3181.3 716.802 -504.098 -169.35 -52.4984 -176.723 4.03386 0.810833 3.01626 4.0387 0.61735 3.06168 4.06885 0.182252 3.11793 4.05591 0.672153 3.05013 -8.25742 9.29202 -1.27041 -8.29229 18.2588 0.822697 -0.0 0.0 -0.0 -1.58042 22.6348 0.423274 -59.7041 -61.4568 39.7574 0.559754 -15.4981 0.0761704 32.2994 -0.0104208 -4.07188 -0.266793 -14.2933 -7.89015 -0.0 0.0 -0.0 12.0157 28.1262 -23.1609 -62.7557 67.4399 -16.6912 1.43257 35.3594 -0.456652 -16.2859 0.849281 -1.89436 1.60519 -19.377 -17.7264 0.0 0.0 0.0 46.215 7.13878 -5.4485 -51.7427 -1.37731 7.55552 0.908656 -28.9281 -0.166803 -6.36596 0.0 0.0 -0.0 0.0 -0.0 18.5198 14.9102 -4.74672 -21.9758 -0.266933 -3.34117 35.2299 -15.3102 4.48521 -33.1617 0.0 0.0 0.0 0.0 0.0 
3194.75 711.592 -493.447 -169.849 -52.5565 -177.22 3.97911 0.796777 2.95343 3.98376 0.607315 2.99809 4.01288 0.178225 3.05374 4.00048 0.658053 2.98737 -7.30906 9.06785 -1.6789 -7.30291 18.0755 0.215809 -0.0 0.0 -0.0 -2.47177 22.9447 -0.764016 -60.3442 -61.3561 40.7903 0.656083 -18.0045 0.103941 32.9596 -0.0345647 -4.15273 -0.174524 -14.7698 -7.46756 -0.0 0.0 -0.0 11.1154 27.4405 -21.207 -60.9837 67.2556 -14.5689 1.45277 35.7389 -0.4684 -16.9247 0.893344 -1.96325 1.60657 -15.1659 -16.3886 0.0 0.0 0.0 44.5219 6.90017 -5.76619 -46.0393 -0.894979 6.82213 -2.30392 -26.3185 0.412855 -5.90525 0.0 0.0 -0.0 0.0 -0.0 17.1319 11.6967 -2.77005 -22.2369 -0.262362 -3.38096 34.0745 -14.6039 4.3601 -33.9512 0.0 0.0 0.0 0.0 0.0 
3208.79 716.638 -491.39 -170.001 -51.7084 -177.368 3.98159 0.720854 2.92291 3.98619 0.533485 2.9628 4.01115 0.109918 3.0084 3.99899 0.58345 2.95338 -7.63131 9.50078 -1.59023 -7.64001 18.8375 0.449648 -0.0 0.0 -0.0 -2.74758 23.146 -1.10873 -60.7321 -61.3349 41.5873 0.724369 -19.7396 0.126031 35.0074 -0.115363 -4.40169 -0.172325 -13.8739 -7.07175 -0.0 0.0 -0.0 10.4778 26.8904 -19.8364 -58.6817 66.5983 -14.3361 1.46792 36.0211 -0.477279 -18.7222 1.02146 -2.15445 1.54124 -8.25874 -13.5374 0.0 0.0 0.0 43.4233 7.25591 -5.24874 -40.2208 -0.480871 6.02916 -7.52811 -21.1778 1.28908 -5.01294 0.0 0.0 -0.0 0.0 -0.0 16.0692 8.1589 -1.35786 -22.0886 -0.264981 -3.35835 36.2997 -11.7625 4.55055 -35.8273 0.0 0.0 0.0 0.0 0.0 
3223.27 713.834 -489.18 -171.347 -50.2282 -178.76 3.92699 0.679741 2.93252 3.93164 0.491844 2.96979 3.95454 0.0646741 3.00951 3.94231 0.538947 2.96161 -8.13828 9.85692 -1.29324 -8.17333 19.324 0.90923 -0.0 0.0 -0.0 -2.54471 23.2672 -0.805779 -60.0666 -61.7102 42.4581 0.775805 -21.0223 0.143945 36.5683 -0.182909 -4.58946 -0.176903 -13.1513 -6.79512 -0.0 0.0 -0.0 10.3351 25.9854 -19.6161 -56.0267 66.5948 -15.4313 1.4906 36.4398 -0.490683 -20.0951 1.12332 -2.29775 1.51178 -3.21666 -11.4266 0.0 0.0 0.0 44.3266 6.88384 -6.02007 -34.4272 -0.150803 5.20266 -11.3495 -17.2123 1.88463 -4.4048 0.0 0.0 -0.0 0.0 -0.0 15.1062 5.68822 -0.190801 -22.1307 -0.264244 -3.36477 37.8372 -9.64729 4.67937 -37.1399 0.0 0.0 0.0 0.0 0.0 
3230.08 709.904 -483.71 -171.772 -48.9309 -178.389 3.92019 0.647423 2.84122 3.92456 0.465393 2.87662 3.9455 0.0512442 2.91354 3.93401 0.510549 2.86896 -8.48973 10.1022 -1.08837 -8.54403 19.6626 1.22893 -0.0 0.0 -0.0 -2.02935 22.874 -0.162307 -59.4446 -61.9379 42.9033 0.796159 -21.5239 0.15133 37.7426 -0.237085 -4.72948 -0.180422 -12.6456 -6.6035 -0.0 0.0 -0.0 11.2913 25.7937 -21.7925 -51.9871 67.7556 -17.454 1.5024 36.6558 -0.497707 -21.0277 1.19447 -2.3937 1.50237 0.420326 -9.91841 0.0 0.0 0.0 44.9922 6.76312 -6.33876 -30.4315 0.0272961 4.61554 -14.102 -14.0547 2.29102 -3.96062 0.0 0.0 -0.0 0.0 -0.0 14.992 3.83464 -0.162954 -22.2163 -0.26273 -3.37782 38.928 -7.91356 4.7695 -38.0545 0.0 0.0 0.0 0.0 0.0 
3247.15 712.46 -481.398 -169.745 -48.2735 -177.058 3.91667 0.627779 2.81537 3.92097 0.447432 2.84957 3.94084 0.0370594 2.88422 3.92957 0.491916 2.84224 -8.80432 9.8355 -2.07173 -8.86158 19.8613 0.252389 -0.0 0.0 -0.0 -1.80205 23.1327 0.19517 -59.4532 -62.1938 43.7067 0.798412 -21.5792 0.152157 37.9883 -0.248783 -4.75864 -0.160229 -12.6635 -6.47424 -0.0 0.0 -0.0 11.7403 26.0386 -22.7849 -48.3677 66.0384 -17.0244 1.47373 36.1288 -0.480699 -21.607 1.23945 -2.45272 1.47533 3.53716 -8.45879 0.0 0.0 0.0 45.3151 6.70336 -6.49183 -27.6569 0.126655 4.20136 -16.0987 -10.9226 2.56467 -2.93875 0.0 0.0 -0.0 0.0 -0.0 15.4214 4.70135 -1.19314 -22.2326 -0.262438 -3.38031 40.1018 -6.64619 4.86872 -38.5532 0.0 0.0 0.0 0.0 0.0 
3258.64 707.964 -477.541 -169.076 -48.4592 -175.805 3.89315 0.495117 2.39629 3.89628 0.341677 2.42291 3.90901 -0.0083043 2.44686 3.90086 0.378121 2.4175 -8.84576 9.64791 -2.79675 -8.89325 20.0112 -0.499727 -0.0 0.0 -0.0 -1.73634 22.9893 0.262802 -59.8604 -62.2246 43.561 0.794903 -21.493 0.150869 38.1602 -0.257044 -4.77901 -0.143426 -12.6629 -6.36015 -0.0 0.0 -0.0 12.1014 26.1802 -23.5921 -45.9489 64.9184 -17.2719 1.45342 35.7511 -0.468781 -21.9974 1.27011 -2.49224 1.45938 5.73724 -7.43084 0.0 0.0 0.0 45.715 6.48386 -6.84928 -24.8609 0.206362 3.77971 -17.586 -8.63783 2.76703 -2.22482 0.0 0.0 -0.0 0.0 -0.0 15.5953 5.64562 -1.60174 -22.273 -0.261716 -3.38646 40.7788 -5.77397 4.92514 -38.9115 0.0 0.0 0.0 0.0 0.0 
